<svg width="476" height="476" viewBox="0 0 476 476" fill="none" xmlns="http://www.w3.org/2000/svg">
<path d="M417.895 171.667V220.661C417.895 228.378 411.573 234.653 403.903 234.653H283.136V157.675H403.949C411.573 157.675 417.895 163.95 417.895 171.667ZM391.77 349.702V406.878C391.77 414.594 385.495 420.869 377.778 420.869H320.603L391.77 349.702ZM391.77 265.472V328.923L299.731 420.869H267.703V389.446L391.77 265.472ZM391.77 240.278V244.647L267.703 368.667V312.607L340.126 240.278H391.77Z" fill="#FFEBD2"/>
<path d="M320.742 78.0469C341.195 78.0469 357.744 94.6883 357.744 115.048C357.744 135.502 341.149 152.05 320.742 152.05H244.601L269.702 114.119C287.831 89.2031 299.452 78.0469 320.742 78.0469Z" fill="#D66474"/>
<path d="M319.301 240.277L267.703 291.828V240.277H319.301Z" fill="#FFEBD2"/>
<path d="M277.512 157.675V234.653H199.604V157.675H238.837L238.883 157.721V157.675H244.601H277.512ZM266.355 53.2244C276.954 71.5857 275.327 90.133 260.87 115.142L238.883 147.727L201.37 92.1318C196.536 83.7182 195.327 73.1662 198.116 63.1256C200.905 53.085 207.367 44.5783 215.873 39.6975C221.545 36.3971 227.866 34.7236 234.281 34.7236C237.489 34.7236 240.743 35.0955 243.904 35.9787C253.479 38.5354 261.428 44.7178 266.355 53.2244ZM214.525 240.278H262.125V420.869H214.525V240.278ZM209.04 114.119L234.188 152.097H158C137.594 152.097 120.999 135.502 120.999 115.095C120.999 94.6885 137.64 78.0936 158 78.0936C179.29 78.0471 191.004 89.2033 209.04 114.119Z" fill="#D66474"/>
<path d="M208.901 350.864V420.869H138.988L208.901 350.864ZM208.901 266.634V330.085L118.163 420.869H101.011C93.2941 420.869 87.0188 414.594 87.0188 406.878V388.563L208.901 266.634ZM208.901 240.278V245.856L87.0188 367.784V311.724L158.465 240.278H208.901ZM194.026 157.675V234.699H74.8863C67.1699 234.699 60.8945 228.424 60.8945 220.708V171.667C60.8945 163.95 67.1699 157.675 74.8863 157.675H194.026ZM137.687 240.278L87.0188 290.946V240.278H137.687Z" fill="#FFEBD2"/>
<path d="M137.687 240.278H87.0187V290.946L137.687 240.278ZM158.465 240.278L87.0187 311.725V367.785L208.947 245.856V240.278H158.465ZM138.988 420.87H208.947V350.864L138.988 420.87ZM158 157.675H74.8863C67.1699 157.675 60.8945 163.951 60.8945 171.667V220.662C60.8945 228.378 67.1699 234.653 74.8863 234.653H193.979V157.675H158ZM120.999 115.049C120.999 135.502 137.64 152.051 158 152.051H234.142L208.994 114.073C190.958 89.1573 179.244 78.0011 157.954 78.0011C137.64 78.0476 120.999 94.689 120.999 115.049ZM101.011 420.87H118.163L208.947 330.086V266.635L87.0187 388.563V406.878C87.0187 414.594 93.2941 420.87 101.011 420.87ZM391.77 328.924V265.473L267.703 389.446V420.87H299.731L391.77 328.924ZM267.703 368.668L391.77 244.601V240.232H340.126L267.703 312.608V368.668ZM320.603 420.87H377.778C385.495 420.87 391.77 414.594 391.77 406.878V349.702L320.603 420.87ZM319.301 240.278H267.703V291.876L319.301 240.278ZM260.87 115.189C275.327 90.1335 276.954 71.6327 266.355 53.2714C261.428 44.7648 253.479 38.5823 243.903 36.0257C240.696 35.189 237.442 34.7706 234.281 34.7706C227.82 34.7706 221.498 36.4441 215.873 39.7445C207.367 44.6253 200.905 53.132 198.116 63.1726C195.327 73.2132 196.536 83.7652 201.37 92.1788L238.883 147.774L260.87 115.189ZM262.125 420.87V240.278H214.525V420.87H262.125ZM283.136 234.653H403.949C411.619 234.653 417.941 228.378 417.941 220.662V171.667C417.941 163.951 411.619 157.675 403.949 157.675H283.09V234.653H283.136ZM199.604 234.653H277.512V157.675H238.883V157.722L238.837 157.675H199.65V234.653H199.604ZM269.702 114.166L244.601 152.097H320.742C341.195 152.097 357.744 135.502 357.744 115.096C357.744 94.689 341.149 78.0941 320.742 78.0941C299.452 78.0476 287.831 89.2038 269.702 114.166ZM275.048 97.8964C289.365 80.4183 301.312 72.423 320.742 72.423C344.263 72.423 363.368 91.5745 363.368 115.049C363.368 130.9 354.676 144.753 341.8 152.051H403.903C414.734 152.051 423.519 160.836 423.519 171.667V220.662C423.519 231.493 414.734 240.278 403.903 240.278H397.348V406.878C397.348 417.709 388.563 426.494 377.732 426.494H101.011C90.1797 426.494 81.3941 417.709 81.3941 406.878V240.278H74.8863C64.0554 240.278 55.2699 231.493 55.2699 220.662V171.667C55.2699 160.836 64.0554 152.051 74.8863 152.051H136.989C124.113 144.706 115.374 130.9 115.374 115.049C115.374 91.5745 134.526 72.423 158 72.423C172.411 72.423 182.637 76.839 192.817 86.1359C190.539 78.373 190.4 69.8198 192.724 61.5921C195.932 50.2034 203.323 40.4417 213.038 34.8171C222.893 29.0995 234.374 27.612 245.344 30.5405C256.315 33.4691 265.519 40.4882 271.236 50.3429C279.743 65.1714 281.045 80.3253 275.048 97.8964Z" fill="#F2C2B9"/>
</svg>
