<svg width="80" height="75" viewBox="0 0 80 75" fill="none" xmlns="http://www.w3.org/2000/svg">
<g clip-path="url(#clip0_104_363)">
<path d="M42.6566 13.8168C38.9067 8.87516 31.8649 7.90968 26.9233 11.6596C24.1932 13.7314 22.6788 16.8033 22.5004 19.9731C19.3996 19.2917 16.0296 19.9263 13.3033 21.9951C8.36173 25.745 7.39625 32.7868 11.1462 37.7284C13.1138 40.3213 15.9536 41.5852 18.9932 42.1147L41.3422 44.7314L44.7205 22.8079C45.0564 19.9091 44.679 16.4821 42.6565 13.8169L42.6566 13.8168Z" fill="#D1525C"/>
<path d="M41.3422 44.7314L18.9893 42.1176C15.9459 41.591 13.1099 40.3242 11.1423 37.7314C7.39237 32.7898 8.35785 25.748 13.2995 21.998C16.0296 19.9263 19.3958 19.2946 22.4965 19.976L41.3422 44.7314L41.3422 44.7314Z" fill="#DB6574"/>
</g>
<g clip-path="url(#clip1_104_363)">
<path d="M10.3971 59.4851C8.5819 60.5332 7.96032 62.8529 9.00834 64.6681C9.58733 65.671 10.5531 66.3086 11.6081 66.5025C11.2485 67.5131 11.3187 68.6697 11.8968 69.6712C12.9449 71.4864 15.2646 72.1079 17.0798 71.0599C18.0322 70.51 18.5761 69.6115 18.8822 68.615L20.7049 61.2337L13.4985 59.1737C12.541 58.9384 11.3762 58.9199 10.3971 59.4852L10.3971 59.4851Z" fill="#D1525C"/>
<path d="M20.7049 61.2332L18.883 68.6159C18.5777 69.6139 18.0331 70.511 17.0806 71.0609C15.2654 72.1089 12.9457 71.4873 11.8977 69.6721C11.3187 68.6693 11.2493 67.5141 11.6089 66.5035L20.7049 61.2332L20.7049 61.2332Z" fill="#DB6574"/>
</g>
<g clip-path="url(#clip2_104_363)">
<path d="M64.8281 17.9793C65.4008 13.7165 62.411 9.79882 58.1482 9.22619C55.7931 8.90982 53.5466 9.67959 51.9091 11.1506C50.7179 9.29959 48.7509 7.96383 46.3991 7.64791C42.1363 7.07527 38.2186 10.065 37.646 14.3278C37.3456 16.5645 38.1237 18.5744 39.3591 20.3208L49.0666 32.5345L61.4466 23.4085C63.0291 22.1477 64.5192 20.2784 64.828 17.9793L64.8281 17.9793Z" fill="#D1525C"/>
<path d="M49.0667 32.535L39.3558 20.3208C38.1171 18.574 37.3422 16.5645 37.6427 14.3278C38.2153 10.065 42.1329 7.07527 46.3958 7.64791C48.7509 7.96427 50.7146 9.2996 51.9058 11.1506L49.0667 32.535L49.0667 32.535Z" fill="#DB6574"/>
</g>
<g clip-path="url(#clip3_104_363)">
<path d="M76.1258 12.789C75.5548 10.439 73.1883 8.99767 70.8383 9.56862C69.54 9.88405 68.5205 10.7462 67.9633 11.8514C66.9611 11.1251 65.6578 10.8273 64.3613 11.1423C62.0113 11.7132 60.57 14.0797 61.1409 16.4297C61.4405 17.6627 62.2587 18.5566 63.2627 19.219L70.8431 23.6337L75.4637 16.3238C76.035 15.3401 76.4337 14.0565 76.1257 12.789L76.1258 12.789Z" fill="#D1525C"/>
<path d="M70.8431 23.6342L63.2608 19.22C62.2551 18.558 61.4387 17.6637 61.1391 16.4307C60.5681 14.0807 62.0095 11.7142 64.3595 11.1432C65.6578 10.8278 66.9593 11.1261 67.9614 11.8524L70.8431 23.6342L70.8431 23.6342Z" fill="#DB6574"/>
</g>
<g clip-path="url(#clip4_104_363)">
<path d="M12.8014 38.2537C9.63337 38.2537 7.0667 41.0537 7.0667 44.5097C7.0667 46.419 7.84892 48.1257 9.08335 49.2723C7.84891 50.419 7.0667 52.1283 7.0667 54.035C7.0667 57.491 9.63337 60.291 12.8014 60.291C14.4636 60.291 15.8545 59.4563 17.0082 58.2857L24.9722 49.2484L17.0962 40.3657C16.0207 39.2404 14.51 38.2537 12.8014 38.2537L12.8014 38.2537Z" fill="#D1525C"/>
<path d="M24.9722 49.2486L17.0082 58.2886C15.8545 59.4619 14.4636 60.2939 12.8014 60.2939C9.63337 60.2939 7.0667 57.4939 7.0667 54.0379C7.0667 52.1286 7.84892 50.4219 9.08335 49.2753L24.9722 49.2486L24.9722 49.2486Z" fill="#DB6574"/>
</g>
<defs>
<clipPath id="clip0_104_363">
<rect width="43.0789" height="43.0789" fill="white" transform="translate(0 26.041) rotate(-37.193)"/>
</clipPath>
<clipPath id="clip1_104_363">
<rect width="14.5557" height="14.5557" fill="white" transform="translate(12.6904 74.3018) rotate(-120)"/>
</clipPath>
<clipPath id="clip2_104_363">
<rect width="29.8689" height="29.8689" fill="white" transform="translate(37.8807 3.13281) rotate(7.65087)"/>
</clipPath>
<clipPath id="clip3_104_363">
<rect width="16.7942" height="16.7942" fill="white" transform="translate(58.9766 10.5176) rotate(-13.6559)"/>
</clipPath>
<clipPath id="clip4_104_363">
<rect width="24" height="22" fill="white" transform="translate(4.60583 61.3018) rotate(-90)"/>
</clipPath>
</defs>
</svg>
