<svg width="198" height="198" viewBox="0 0 198 198" fill="none" xmlns="http://www.w3.org/2000/svg">
<circle cx="99" cy="99" r="99" fill="white"/>
<path fill-rule="evenodd" clip-rule="evenodd" d="M75.7864 72.4536C75.8854 71.6211 76.1773 70.8231 76.6388 70.1231C77.1003 69.4232 77.7188 68.8405 78.445 68.4215C79.1712 68.0025 79.9852 67.7587 80.8221 67.7095C81.6591 67.6603 82.496 67.807 83.2664 68.1379C87.1604 69.8026 95.887 73.7589 106.96 80.1499C118.037 86.5446 125.829 92.1289 129.213 94.6626C132.103 96.8296 132.11 101.127 129.217 103.301C125.866 105.82 118.169 111.331 106.96 117.807C95.7404 124.282 87.1164 128.191 83.259 129.833C79.937 131.252 76.219 129.1 75.7864 125.518C75.2804 121.33 74.3344 111.823 74.3344 98.9819C74.3344 86.1486 75.2767 76.6446 75.7864 72.4536Z" fill="#2F2F2F"/>
</svg>
